<svg width="66" height="66" viewBox="0 0 66 66" fill="none" xmlns="http://www.w3.org/2000/svg">
<path d="M10.9922 55.002C9.47969 55.002 8.1849 54.4634 7.10781 53.3863C6.03073 52.3092 5.49219 51.0145 5.49219 49.502V16.502C5.49219 14.9895 6.03073 13.6947 7.10781 12.6176C8.1849 11.5405 9.47969 11.002 10.9922 11.002H54.9922C56.5047 11.002 57.7995 11.5405 58.8766 12.6176C59.9536 13.6947 60.4922 14.9895 60.4922 16.502V49.502C60.4922 51.0145 59.9536 52.3092 58.8766 53.3863C57.7995 54.4634 56.5047 55.002 54.9922 55.002H10.9922ZM32.9922 35.752L10.9922 22.002V49.502H54.9922V22.002L32.9922 35.752ZM32.9922 30.252L54.9922 16.502H10.9922L32.9922 30.252ZM10.9922 22.002V16.502V49.502V22.002Z" fill="#8E5B12"/>
</svg>
