<svg width="23" height="23" viewBox="0 0 23 23" fill="none" xmlns="http://www.w3.org/2000/svg">
<path d="M4.79167 18.2083H6.15729L15.525 8.84062L14.1594 7.475L4.79167 16.8427V18.2083ZM2.875 20.125V16.0521L15.525 3.42604C15.7167 3.25035 15.9283 3.11458 16.1599 3.01875C16.3915 2.92292 16.6351 2.875 16.8906 2.875C17.1462 2.875 17.3937 2.92292 17.6333 3.01875C17.8729 3.11458 18.0806 3.25833 18.2562 3.45L19.574 4.79167C19.7656 4.96736 19.9054 5.175 19.9932 5.41458C20.0811 5.65417 20.125 5.89375 20.125 6.13333C20.125 6.38889 20.0811 6.63247 19.9932 6.86406C19.9054 7.09566 19.7656 7.30729 19.574 7.49896L6.94792 20.125H2.875ZM14.8302 8.16979L14.1594 7.475L15.525 8.84062L14.8302 8.16979Z" fill="black"/>
</svg>
