<svg width="23" height="23" viewBox="0 0 23 23" fill="none" xmlns="http://www.w3.org/2000/svg">
<path d="M8.625 20.125H4.79167C4.26458 20.125 3.81337 19.9373 3.43802 19.562C3.06267 19.1866 2.875 18.7354 2.875 18.2083V11.5C2.875 10.3021 3.1026 9.18003 3.55781 8.13385C4.01302 7.08767 4.62795 6.17726 5.4026 5.4026C6.17726 4.62795 7.08767 4.01302 8.13385 3.55781C9.18003 3.1026 10.3021 2.875 11.5 2.875C12.6979 2.875 13.82 3.1026 14.8661 3.55781C15.9123 4.01302 16.8227 4.62795 17.5974 5.4026C18.372 6.17726 18.987 7.08767 19.4422 8.13385C19.8974 9.18003 20.125 10.3021 20.125 11.5V18.2083C20.125 18.7354 19.9373 19.1866 19.562 19.562C19.1866 19.9373 18.7354 20.125 18.2083 20.125H14.375V12.4583H18.2083V11.5C18.2083 9.63125 17.5575 8.04601 16.2557 6.74427C14.954 5.44253 13.3687 4.79167 11.5 4.79167C9.63125 4.79167 8.04601 5.44253 6.74427 6.74427C5.44253 8.04601 4.79167 9.63125 4.79167 11.5V12.4583H8.625V20.125ZM6.70833 14.375H4.79167V18.2083H6.70833V14.375ZM16.2917 14.375V18.2083H18.2083V14.375H16.2917Z" fill="black"/>
</svg>
