<svg width="23" height="23" viewBox="0 0 23 23" fill="none" xmlns="http://www.w3.org/2000/svg">
<path d="M11.5031 21.0832C10.3052 21.0832 9.18316 20.8556 8.13698 20.4004C7.0908 19.9452 6.18038 19.3303 5.40573 18.5556C4.63108 17.7809 4.01615 16.8705 3.56094 15.8243C3.10573 14.7782 2.87813 13.6561 2.87813 12.4582C2.87813 11.2603 3.10573 10.1382 3.56094 9.09206C4.01615 8.04588 4.63108 7.13546 5.40573 6.36081C6.18038 5.58615 7.0908 4.97122 8.13698 4.51602C9.18316 4.06081 10.3052 3.8332 11.5031 3.8332C12.701 3.8332 13.8231 4.06081 14.8693 4.51602C15.9155 4.97122 16.8259 5.58615 17.6005 6.36081C18.3752 7.13546 18.9901 8.04588 19.4453 9.09206C19.9005 10.1382 20.1281 11.2603 20.1281 12.4582C20.1281 13.6561 19.9005 14.7782 19.4453 15.8243C18.9901 16.8705 18.3752 17.7809 17.6005 18.5556C16.8259 19.3303 15.9155 19.9452 14.8693 20.4004C13.8231 20.8556 12.701 21.0832 11.5031 21.0832ZM14.1865 16.4832L15.5281 15.1415L12.4615 12.0749V7.66654H10.5448V12.8415L14.1865 16.4832ZM5.36979 2.25195L6.71146 3.59362L2.63854 7.66654L1.29688 6.32487L5.36979 2.25195ZM17.6365 2.25195L21.7094 6.32487L20.3677 7.66654L16.2948 3.59362L17.6365 2.25195ZM11.5031 19.1665C13.3719 19.1665 14.9571 18.5157 16.2589 17.2139C17.5606 15.9122 18.2115 14.327 18.2115 12.4582C18.2115 10.5895 17.5606 9.00421 16.2589 7.70247C14.9571 6.40074 13.3719 5.74987 11.5031 5.74987C9.63438 5.74987 8.04913 6.40074 6.7474 7.70247C5.44566 9.00421 4.79479 10.5895 4.79479 12.4582C4.79479 14.327 5.44566 15.9122 6.7474 17.2139C8.04913 18.5157 9.63438 19.1665 11.5031 19.1665Z" fill="black"/>
</svg>
