<svg width="23" height="23" viewBox="0 0 23 23" fill="none" xmlns="http://www.w3.org/2000/svg">
<path d="M3.83073 19.1673C3.30365 19.1673 2.85243 18.9796 2.47708 18.6043C2.10174 18.2289 1.91406 17.7777 1.91406 17.2507V5.75065C1.91406 5.22357 2.10174 4.77235 2.47708 4.39701C2.85243 4.02166 3.30365 3.83398 3.83073 3.83398H19.1641C19.6911 3.83398 20.1424 4.02166 20.5177 4.39701C20.8931 4.77235 21.0807 5.22357 21.0807 5.75065V17.2507C21.0807 17.7777 20.8931 18.2289 20.5177 18.6043C20.1424 18.9796 19.6911 19.1673 19.1641 19.1673H3.83073ZM11.4974 12.459L3.83073 7.66732V17.2507H19.1641V7.66732L11.4974 12.459ZM11.4974 10.5423L19.1641 5.75065H3.83073L11.4974 10.5423ZM3.83073 7.66732V5.75065V17.2507V7.66732Z" fill="black"/>
</svg>
