<svg width="66" height="66" viewBox="0 0 66 66" fill="none" xmlns="http://www.w3.org/2000/svg">
<path d="M42.7969 11.8594C45.8054 11.8594 48.6908 13.0545 50.8181 15.1819C52.9455 17.3092 54.1406 20.1946 54.1406 23.2031V42.7969C54.1406 45.8054 52.9455 48.6908 50.8181 50.8181C48.6908 52.9455 45.8054 54.1406 42.7969 54.1406H23.2031C20.1946 54.1406 17.3092 52.9455 15.1819 50.8181C13.0545 48.6908 11.8594 45.8054 11.8594 42.7969V23.2031C11.8594 20.1946 13.0545 17.3092 15.1819 15.1819C17.3092 13.0545 20.1946 11.8594 23.2031 11.8594H42.7969ZM42.7969 7.73438H23.2031C19.1043 7.74662 15.1769 9.38029 12.2786 12.2786C9.38029 15.1769 7.74662 19.1043 7.73438 23.2031V42.7969C7.74662 46.8957 9.38029 50.8231 12.2786 53.7214C15.1769 56.6197 19.1043 58.2534 23.2031 58.2656H42.7969C46.8957 58.2534 50.8231 56.6197 53.7214 53.7214C56.6197 50.8231 58.2534 46.8957 58.2656 42.7969V23.2031C58.2534 19.1043 56.6197 15.1769 53.7214 12.2786C50.8231 9.38029 46.8957 7.74662 42.7969 7.73438Z" fill="white"/>
<path d="M46.478 16.5C45.8936 16.5 45.3224 16.6733 44.8365 16.9979C44.3506 17.3226 43.972 17.784 43.7483 18.3239C43.5247 18.8638 43.4662 19.4578 43.5802 20.0309C43.6942 20.6041 43.9756 21.1305 44.3888 21.5437C44.802 21.9569 45.3284 22.2383 45.9016 22.3523C46.4747 22.4663 47.0688 22.4078 47.6086 22.1842C48.1485 21.9605 48.6099 21.5819 48.9346 21.096C49.2592 20.6101 49.4325 20.0389 49.4325 19.4545C49.4325 19.0665 49.3561 18.6823 49.2076 18.3239C49.0591 17.9654 48.8415 17.6397 48.5671 17.3654C48.2928 17.091 47.9671 16.8734 47.6086 16.7249C47.2502 16.5764 46.866 16.5 46.478 16.5Z" fill="white"/>
<path d="M33.1373 23.961C34.9408 23.9599 36.7041 24.4939 38.204 25.4952C39.704 26.4965 40.8732 27.9202 41.5638 29.5862C42.2545 31.2522 42.4354 33.0856 42.0838 34.8544C41.7322 36.6233 40.8639 38.2481 39.5887 39.5234C38.3134 40.7986 36.6886 41.667 34.9197 42.0185C33.1509 42.3701 31.3175 42.1892 29.6515 41.4985C27.9855 40.8079 26.5618 39.6387 25.5605 38.1387C24.5592 36.6388 24.0252 34.8755 24.0263 33.0721C24.0303 30.6569 24.9916 28.3418 26.6993 26.6341C28.4071 24.9263 30.7222 23.9651 33.1373 23.961ZM33.1373 19.836C30.5194 19.8411 27.9616 20.6221 25.7874 22.0804C23.6132 23.5387 21.92 25.6088 20.9219 28.029C19.9238 30.4493 19.6656 33.1111 20.1798 35.6781C20.6941 38.2451 21.9577 40.602 23.8111 42.4511C25.6644 44.3001 28.0243 45.5583 30.5925 46.0665C33.1607 46.5748 35.8219 46.3103 38.2398 45.3066C40.6578 44.3028 42.7239 42.6048 44.1771 40.4272C45.6303 38.2496 46.4054 35.69 46.4044 33.0721C46.4037 31.3315 46.0599 29.6081 45.3925 28.0005C44.7252 26.3929 43.7474 24.9326 42.5152 23.7033C41.2829 22.4739 39.8204 21.4996 38.2113 20.836C36.6021 20.1724 34.8779 19.8326 33.1373 19.836Z" fill="white"/>
</svg>
