<svg width="66" height="66" viewBox="0 0 66 66" fill="none" xmlns="http://www.w3.org/2000/svg">
<path d="M49.5 60.5L57.75 52.25L55.825 50.325L50.875 55.275V44H48.125V55.275L43.175 50.325L41.25 52.25L49.5 60.5ZM33 11L16.7063 20.4188L33 29.8375L49.2938 20.4188L33 11ZM8.25 43.9313V22.0688C8.25 21.0604 8.49063 20.1438 8.97188 19.3188C9.45312 18.4938 10.1292 17.8292 11 17.325L30.25 6.25625C30.7083 6.02708 31.1552 5.84375 31.5906 5.70625C32.026 5.56875 32.4958 5.5 33 5.5C33.5042 5.5 33.9854 5.56875 34.4438 5.70625C34.9021 5.84375 35.3375 6.02708 35.75 6.25625L55 17.325C55.8708 17.8292 56.5469 18.4938 57.0281 19.3188C57.5094 20.1438 57.75 21.0604 57.75 22.0688V33H52.25V25.025L32.9312 36.1625L13.75 25.025V43.8625L30.25 53.4188V59.7438L11 48.675C10.1292 48.1708 9.45312 47.5063 8.97188 46.6813C8.49063 45.8563 8.25 44.9396 8.25 43.9313ZM49.5 66C45.6958 66 42.4531 64.6594 39.7719 61.9781C37.0906 59.2969 35.75 56.0542 35.75 52.25C35.75 48.4458 37.0906 45.2031 39.7719 42.5219C42.4531 39.8406 45.6958 38.5 49.5 38.5C53.3042 38.5 56.5469 39.8406 59.2281 42.5219C61.9094 45.2031 63.25 48.4458 63.25 52.25C63.25 56.0542 61.9094 59.2969 59.2281 61.9781C56.5469 64.6594 53.3042 66 49.5 66Z" fill="#B34892"/>
</svg>
